# xmcd CD database file
#
# Track frame offsets:
#	182
#	17167
#	45007
#	77987
#	92730
#	106745
#	124375
#	139245
#	158680
#	171110
#	184650
#	211545
#	227150
#	250810
#
# Disc length: 3787 seconds
#
# Revision: 0
# Processed by: cddbd v1.5.2PL0 Copyright (c) Steve Scherf et al.
# Submitted via: CDex 1.51
#
DISCID=aa0ec90e
DTITLE=High Society Jazz Band - noname
DYEAR=1900
DGENRE=Jazz
TTITLE0=Alexander's ragtime band
TTITLE1=Copenhagen
TTITLE2=Riverside blues
TTITLE3=A good man is hard to find
TTITLE4=Basin street blues
TTITLE5=I lost my heart in Dixieland
TTITLE6=Room rent blues
TTITLE7=Gulf coast blues
TTITLE8=Some of these days
TTITLE9=Alligator hope
TTITLE10=Tiger rag
TTITLE11=Frankie and Johnny
TTITLE12=Where did you stay last night
TTITLE13=Wolverine blues
EXTD=
EXTT0=
EXTT1=
EXTT2=
EXTT3=
EXTT4=
EXTT5=
EXTT6=
EXTT7=
EXTT8=
EXTT9=
EXTT10=
EXTT11=
EXTT12=
EXTT13=
PLAYORDER=
